<svg width="30" xmlns="http://www.w3.org/2000/svg" height="70.8" id="screenshot-b2795962-aeca-80e0-8006-2cf8aedc716f" viewBox="0 -0 30 70.8" xmlns:xlink="http://www.w3.org/1999/xlink" fill="none" version="1.1"><g id="shape-b2795962-aeca-80e0-8006-2cf8aedc716f" xml:space="preserve" rx="0" ry="0" style="fill: rgb(0, 0, 0);"><g id="shape-b2795962-aeca-80e0-8006-2cf8aedc7172" style="display: none;"><g class="fills" id="fills-b2795962-aeca-80e0-8006-2cf8aedc7172"><rect width="30" height="70.80000000000018" x="0" transform="matrix(1.000000, 0.000000, 0.000000, 1.000000, 0.000000, 0.000000)" style="fill-rule: evenodd; clip-rule: evenodd; stroke-linejoin: round; stroke-miterlimit: 2; fill: none;" ry="0" fill="none" rx="0" y="0"/></g></g><g id="shape-b2795962-aeca-80e0-8006-2cf8aedc7173"><g class="fills" id="fills-b2795962-aeca-80e0-8006-2cf8aedc7173"><path d="M18.868,26.689C20.734,26.085,22.405,25.048,23.761,23.694L19.422,18.790L16.116,18.790L16.116,25.722L22.321,39.542L19.987,39.542L19.163,37.712L16.116,37.712L16.116,70.064L13.962,70.064L13.962,37.712L10.750,37.712L9.926,39.542L7.658,39.542L13.944,25.569L13.944,18.790L10.589,18.790L6.322,23.615C7.649,24.961,9.283,26.003,11.112,26.627L10.238,28.582C4.626,26.615,0.600,21.275,0.600,14.991C0.600,7.386,6.497,1.162,13.968,0.633L13.968,2.749C7.699,3.312,2.786,8.576,2.786,14.991C2.786,17.593,3.596,20.004,4.976,21.990L8.065,18.437C6.220,17.705,4.913,15.909,4.913,13.803C4.913,11.048,7.146,8.816,9.900,8.816L20.160,8.816C22.914,8.816,25.147,11.048,25.147,13.803C25.147,15.927,23.817,17.735,21.947,18.455L25.139,22.058C26.547,20.059,27.376,17.623,27.376,14.991C27.376,8.541,22.409,3.255,16.092,2.741L16.092,0.637C23.534,1.196,29.400,7.406,29.400,14.991C29.400,21.289,25.356,26.638,19.725,28.594L18.868,26.689ZZM16.116,10.940L16.116,16.676L20.471,16.676C22.056,16.676,23.339,15.392,23.339,13.808C23.339,12.224,22.056,10.940,20.471,10.940L16.116,10.940ZZM9.885,16.676L13.944,16.676L13.944,10.940L9.885,10.940C8.301,10.940,7.016,12.224,7.016,13.808C7.016,15.392,8.301,16.676,9.885,16.676ZZM11.716,35.564L18.197,35.564L14.956,28.359L11.716,35.564ZZM11.927,63.794L11.927,65.919L3.903,65.919L3.903,63.794L11.927,63.794ZZM11.927,68.041L11.927,70.167L3.903,70.167L3.903,68.041L11.927,68.041ZZ" style="fill-rule: evenodd; clip-rule: evenodd; stroke-linejoin: round; stroke-miterlimit: 2; fill: rgb(219, 179, 134); fill-opacity: 1;"/></g></g></g></svg>