<svg width="25" xmlns="http://www.w3.org/2000/svg" height="25" id="screenshot-2478543b-27ba-80f6-8006-4178ed3f1943" viewBox="0 0 25 25" xmlns:xlink="http://www.w3.org/1999/xlink" fill="none" version="1.1"><g id="shape-2478543b-27ba-80f6-8006-4178ed3f1943" xml:space="preserve" rx="0" ry="0" style="fill: rgb(0, 0, 0);"><g id="shape-2478543b-27ba-80f6-8006-4178ed3f1944" style="display: none;"><g class="fills" id="fills-2478543b-27ba-80f6-8006-4178ed3f1944"><rect width="25" height="25" x="0" transform="matrix(1.000000, 0.000000, 0.000000, 1.000000, 0.000000, 0.000000)" style="fill-rule: evenodd; clip-rule: evenodd; stroke-linejoin: round; stroke-miterlimit: 2; fill: none;" ry="0" fill="none" rx="0" y="0"/></g></g><g id="shape-2478543b-27ba-80f6-8006-4178ed3f1945"><g class="fills" id="fills-2478543b-27ba-80f6-8006-4178ed3f1945"><path d="M17.486,18.795C16.117,19.880,14.387,20.529,12.507,20.529C8.079,20.529,4.485,16.934,4.485,12.507C4.485,8.079,8.079,4.485,12.507,4.485C16.934,4.485,20.529,8.079,20.529,12.507C20.529,14.387,19.880,16.117,18.795,17.486L22.540,21.231C22.901,21.592,22.901,22.179,22.540,22.540C22.179,22.901,21.592,22.901,21.231,22.540L17.486,18.795ZZM12.507,6.336C9.101,6.336,6.336,9.101,6.336,12.507C6.336,15.912,9.101,18.677,12.507,18.677C15.912,18.677,18.677,15.912,18.677,12.507C18.677,9.101,15.912,6.336,12.507,6.336ZZM11.581,13.432L9.123,13.432C8.612,13.432,8.198,13.018,8.198,12.507C8.198,11.996,8.612,11.581,9.123,11.581L11.581,11.581L11.581,9.123C11.581,8.613,11.996,8.197,12.507,8.197C13.017,8.197,13.432,8.613,13.432,9.123L13.432,11.581L15.890,11.581C16.401,11.581,16.816,11.996,16.816,12.507C16.816,13.018,16.401,13.432,15.890,13.432L13.432,13.432L13.432,15.890C13.432,16.401,13.017,16.816,12.507,16.816C11.996,16.816,11.581,16.401,11.581,15.890L11.581,13.432ZZ" style="fill-rule: evenodd; clip-rule: evenodd; stroke-linejoin: round; stroke-miterlimit: 2; fill: rgb(208, 222, 229);"/></g></g></g></svg>