<?xml version="1.0" encoding="UTF-8" standalone="no"?>
<!DOCTYPE svg PUBLIC "-//W3C//DTD SVG 1.1//EN" "http://www.w3.org/Graphics/SVG/1.1/DTD/svg11.dtd">
<svg width="100%" height="100%" viewBox="0 0 50 50" version="1.1" xmlns="http://www.w3.org/2000/svg" xmlns:xlink="http://www.w3.org/1999/xlink" xml:space="preserve" xmlns:serif="http://www.serif.com/" style="fill-rule:evenodd;clip-rule:evenodd;stroke-linejoin:round;stroke-miterlimit:2;">
    <g transform="matrix(0.35329,0,0,0.35329,4.01759,4.01774)">
        <path d="M115.97,101.597L88.661,74.286C93.301,66.899 95.994,58.168 95.994,48.798C95.994,22.289 74.504,0.802 47.996,0.802C21.488,0.802 0,22.289 0,48.798C0,75.308 21.487,96.793 47.996,96.793C58.193,96.793 67.638,93.605 75.41,88.188L102.394,115.174C104.269,117.047 106.727,117.98 109.182,117.98C111.64,117.98 114.095,117.047 115.973,115.174C119.72,111.423 119.72,105.347 115.97,101.597ZM47.996,81.243C30.079,81.243 15.553,66.718 15.553,48.8C15.553,30.882 30.079,16.356 47.996,16.356C65.914,16.356 80.439,30.882 80.439,48.8C80.439,66.718 65.914,81.243 47.996,81.243Z" style="fill:rgb(37,31,92);fill-rule:nonzero;"/>
    </g>
</svg>
