<?xml version="1.0" encoding="UTF-8" standalone="no"?>
<!DOCTYPE svg PUBLIC "-//W3C//DTD SVG 1.1//EN" "http://www.w3.org/Graphics/SVG/1.1/DTD/svg11.dtd">
<svg width="100%" height="100%" viewBox="0 0 50 50" version="1.1" xmlns="http://www.w3.org/2000/svg" xmlns:xlink="http://www.w3.org/1999/xlink" xml:space="preserve" xmlns:serif="http://www.serif.com/" style="fill-rule:evenodd;clip-rule:evenodd;stroke-linejoin:round;stroke-miterlimit:2;">
    <g transform="matrix(0.0913392,0,0,0.0913392,1.6172,1.61715)">
        <path d="M464.883,64.267C490.863,64.267 512,85.403 511.999,111.416C511.999,137.396 490.862,158.533 464.882,158.533L175.65,158.533C149.67,158.533 128.533,137.396 128.533,111.416C128.533,85.404 149.67,64.267 175.65,64.267L464.883,64.267ZM47.134,64.267C73.123,64.267 94.267,85.411 94.267,111.4C94.267,137.389 73.123,158.533 47.134,158.533C21.145,158.533 0,137.389 0,111.4C0,85.411 21.145,64.267 47.134,64.267ZM47.134,208.867C73.123,208.867 94.267,230.011 94.267,256C94.267,281.989 73.123,303.133 47.134,303.133C21.145,303.133 0,281.989 0,256C0,230.011 21.145,208.867 47.134,208.867ZM47.134,353.467C73.123,353.467 94.267,374.611 94.267,400.6C94.267,426.589 73.123,447.733 47.134,447.733C21.145,447.733 0,426.589 0,400.6C0,374.611 21.145,353.467 47.134,353.467ZM464.883,208.867C490.863,208.867 512,230.003 511.999,256.016C511.999,281.996 490.862,303.133 464.882,303.133L175.65,303.133C149.67,303.133 128.533,281.996 128.533,256.016C128.533,230.004 149.67,208.867 175.65,208.867L464.883,208.867ZM464.883,353.467C490.863,353.467 512,374.604 511.999,400.616C511.999,426.596 490.862,447.733 464.882,447.733L175.65,447.733C149.67,447.733 128.533,426.596 128.533,400.616C128.533,374.604 149.67,353.467 175.65,353.467L464.883,353.467Z" style="fill:rgb(37,31,92);"/>
    </g>
</svg>
