<?xml version="1.0" encoding="UTF-8" standalone="no"?>
<!DOCTYPE svg PUBLIC "-//W3C//DTD SVG 1.1//EN" "http://www.w3.org/Graphics/SVG/1.1/DTD/svg11.dtd">
<svg width="100%" height="100%" viewBox="0 0 50 50" version="1.1" xmlns="http://www.w3.org/2000/svg" xmlns:xlink="http://www.w3.org/1999/xlink" xml:space="preserve" xmlns:serif="http://www.serif.com/" style="fill-rule:evenodd;clip-rule:evenodd;stroke-linejoin:round;stroke-miterlimit:2;">
    <g transform="matrix(1.90749,0,0,1.90749,2.1101,1.68481)">
        <path d="M1,20.673L1,4.773C1.001,3.676 1.903,2.774 3,2.773L4.5,2.773C4.5,2.224 4.951,1.773 5.5,1.773C6.049,1.773 6.5,2.224 6.5,2.773L8.834,2.773C8.834,2.224 9.285,1.773 9.834,1.773C10.382,1.773 10.834,2.224 10.834,2.773L13.167,2.773C13.167,2.224 13.618,1.773 14.167,1.773C14.716,1.773 15.167,2.224 15.167,2.773L17.5,2.773C17.5,2.224 17.951,1.773 18.5,1.773C19.049,1.773 19.5,2.224 19.5,2.773L21,2.773C22.097,2.774 22.999,3.676 23,4.773L23,20.673C22.999,21.77 22.097,22.672 21,22.673L3,22.673C1.903,22.672 1.001,21.77 1,20.673ZM4.5,4.773L3,4.773L3,7.773L21,7.773L21,4.773L19.5,4.773L19.5,5.773C19.5,6.321 19.048,6.773 18.5,6.773C17.952,6.773 17.5,6.321 17.5,5.773L17.5,4.773L15.167,4.773L15.167,5.773C15.167,6.321 14.715,6.773 14.167,6.773C13.619,6.773 13.167,6.321 13.167,5.773L13.167,4.773L10.834,4.773L10.834,5.773C10.834,6.321 10.382,6.773 9.834,6.773C9.285,6.773 8.833,6.321 8.833,5.773L8.833,4.773L6.5,4.773L6.5,5.773C6.5,6.321 6.048,6.773 5.5,6.773C4.952,6.773 4.5,6.321 4.5,5.773L4.5,4.773ZM16.707,13.04C16.891,12.853 16.993,12.601 16.993,12.339C16.993,11.791 16.542,11.34 15.994,11.34C15.732,11.34 15.48,11.442 15.293,11.626L10.666,16.253L8.707,14.293C8.52,14.109 8.268,14.007 8.006,14.007C7.458,14.007 7.007,14.458 7.007,15.006C7.007,15.268 7.109,15.52 7.293,15.707L9.959,18.374C10.147,18.562 10.401,18.667 10.666,18.667C10.932,18.667 11.186,18.562 11.374,18.374L16.707,13.04Z" style="fill:rgb(37,31,92);"/>
    </g>
</svg>
