<?xml version="1.0" encoding="UTF-8" standalone="no"?>
<!DOCTYPE svg PUBLIC "-//W3C//DTD SVG 1.1//EN" "http://www.w3.org/Graphics/SVG/1.1/DTD/svg11.dtd">
<svg width="100%" height="100%" viewBox="0 0 50 50" version="1.1" xmlns="http://www.w3.org/2000/svg" xmlns:xlink="http://www.w3.org/1999/xlink" xml:space="preserve" xmlns:serif="http://www.serif.com/" style="fill-rule:evenodd;clip-rule:evenodd;stroke-linejoin:round;stroke-miterlimit:2;">
    <g transform="matrix(1.02733,0,0,1.02733,-0.683191,-0.683191)">
        <path d="M1.43,25C1.43,19.577 3.266,14.578 6.349,10.594C6.363,10.576 6.377,10.558 6.391,10.54C10.706,4.998 17.439,1.43 25,1.43C32.555,1.43 39.285,4.993 43.599,10.528C43.617,10.55 43.635,10.573 43.652,10.596C46.735,14.58 48.57,19.578 48.57,25C48.57,30.401 46.749,35.381 43.688,39.358C43.647,39.415 43.603,39.47 43.559,39.524C39.243,45.03 32.531,48.57 25,48.57C17.465,48.57 10.751,45.026 6.435,39.517C6.392,39.465 6.35,39.411 6.31,39.355C3.25,35.379 1.43,30.4 1.43,25ZM8.215,13.542C6.268,16.385 5.026,19.748 4.739,23.378L11.393,23.378C11.511,20.331 11.959,17.448 12.669,14.84C11.027,14.472 9.53,14.035 8.215,13.542ZM16.419,6.572C14.153,7.63 12.114,9.094 10.395,10.871C11.4,11.199 12.501,11.493 13.681,11.748C14.445,9.777 15.371,8.03 16.419,6.572ZM39.601,10.866C37.883,9.092 35.845,7.63 33.581,6.572C34.629,8.029 35.554,9.775 36.318,11.745C37.497,11.49 38.596,11.195 39.601,10.866ZM45.261,23.378C44.974,19.746 43.73,16.382 41.782,13.537C40.467,14.03 38.971,14.468 37.33,14.836C38.04,17.445 38.489,20.33 38.607,23.378L45.261,23.378ZM41.78,36.467C43.729,33.621 44.974,30.255 45.261,26.622L38.607,26.622C38.489,29.672 38.04,32.558 37.329,35.168C38.969,35.536 40.465,35.974 41.78,36.467ZM33.581,43.428C35.844,42.371 37.881,40.91 39.598,39.137C38.594,38.809 37.494,38.514 36.316,38.259C35.553,40.227 34.628,41.972 33.581,43.428ZM10.398,39.133C12.116,40.907 14.155,42.37 16.419,43.428C15.372,41.971 14.446,40.225 13.682,38.256C12.503,38.51 11.403,38.804 10.398,39.133ZM4.739,26.622C5.026,30.253 6.269,33.617 8.217,36.462C9.532,35.969 11.029,35.532 12.67,35.164C11.96,32.555 11.511,29.671 11.393,26.622L4.739,26.622ZM15.859,15.437C15.182,17.847 14.757,20.533 14.639,23.378L23.378,23.378L23.378,16.086C20.722,16.02 18.189,15.794 15.859,15.437ZM23.378,4.934C21.834,5.432 20.429,6.622 19.205,8.26C18.345,9.412 17.581,10.781 16.936,12.322C18.947,12.604 21.114,12.783 23.378,12.841L23.378,4.934ZM33.064,12.32C32.418,10.78 31.655,9.411 30.795,8.26C29.571,6.622 28.166,5.432 26.622,4.934L26.622,12.841C28.886,12.782 31.053,12.603 33.064,12.32ZM35.361,23.378C35.243,20.532 34.818,17.845 34.141,15.435C31.811,15.792 29.279,16.02 26.622,16.086L26.622,23.378L35.361,23.378ZM34.14,34.57C34.817,32.158 35.243,29.469 35.361,26.622L26.622,26.622L26.622,33.918C29.278,33.985 31.81,34.212 34.14,34.57ZM26.622,45.066C28.166,44.568 29.571,43.378 30.795,41.74C31.654,40.59 32.417,39.223 33.062,37.684C31.051,37.401 28.885,37.222 26.622,37.164L26.622,45.066ZM16.937,37.682C17.583,39.222 18.346,40.589 19.205,41.74C20.429,43.378 21.834,44.568 23.378,45.066L23.378,37.164C21.115,37.222 18.948,37.4 16.937,37.682ZM14.639,26.622C14.757,29.468 15.183,32.156 15.86,34.567C18.19,34.211 20.722,33.984 23.378,33.918L23.378,26.622L14.639,26.622Z" style="fill:rgb(208,222,229);"/>
    </g>
</svg>
